<?xml version="1.0" standalone="no"?>
<!DOCTYPE svg PUBLIC "-//W3C//DTD SVG 20010904//EN"
 "http://www.w3.org/TR/2001/REC-SVG-20010904/DTD/svg10.dtd">
<svg version="1.0" xmlns="http://www.w3.org/2000/svg"
 width="700.000000pt" height="700.000000pt" viewBox="0 0 700.000000 700.000000"
 preserveAspectRatio="xMidYMid meet">
<g transform="translate(0.000000,700.000000) scale(0.100000,-0.100000)"
fill="#000000" stroke="none">
<path d="M3488 6681 c-20 -4 -48 -15 -62 -25 l-26 -16 0 -439 c0 -521 -13
-476 134 -476 71 0 98 4 119 18 l27 17 0 429 c0 236 -3 437 -6 446 -14 35
-113 60 -186 46z"/>
<path d="M1017 6071 c-49 -32 -90 -87 -101 -135 -7 -28 9 -45 296 -333 166
-167 311 -306 321 -309 44 -14 111 30 169 110 53 73 60 63 -279 395 -242 236
-313 301 -333 301 -15 0 -47 -13 -73 -29z"/>
<path d="M5839 6002 c-18 -8 -596 -562 -617 -592 -18 -25 -3 -72 39 -123 36
-44 110 -90 138 -85 11 2 158 135 326 297 281 272 305 297 305 328 0 42 -19
79 -62 120 -26 26 -97 66 -110 62 -2 0 -10 -3 -19 -7z"/>
<path d="M4110 5130 c-137 -29 -230 -71 -460 -209 -74 -45 -141 -81 -149 -81
-8 0 -48 22 -90 49 -135 86 -356 186 -465 211 -214 48 -520 19 -705 -66 -170
-77 -326 -283 -391 -515 -208 -747 155 -1567 915 -2065 61 -39 180 -120 265
-179 191 -131 297 -189 375 -205 99 -20 140 -10 323 86 620 323 958 613 1223
1050 76 124 132 239 174 356 163 451 69 1006 -219 1294 -120 119 -346 252
-475 280 -89 19 -218 16 -321 -6z"/>
<path d="M480 3880 l-165 -5 -17 -35 c-33 -65 -19 -202 24 -237 11 -10 111
-10 441 -4 483 9 456 4 477 91 14 57 5 126 -21 169 l-19 31 -277 -2 c-153 -1
-352 -5 -443 -8z"/>
<path d="M6079 3780 c-233 -4 -310 -8 -322 -18 -39 -33 -49 -171 -16 -237 l14
-30 425 2 c234 2 435 5 447 8 66 15 83 187 27 255 l-26 30 -121 -2 c-67 -1
-260 -5 -428 -8z"/>
<path d="M5184 1921 c-21 -15 -47 -37 -57 -49 -24 -26 -46 -89 -40 -112 4 -15
226 -239 529 -534 87 -84 93 -88 125 -81 41 9 145 110 155 150 4 15 3 37 -2
49 -5 12 -142 153 -305 314 -274 270 -299 292 -331 292 -23 0 -49 -10 -74 -29z"/>
<path d="M1517 1853 c-40 -38 -133 -127 -207 -198 -74 -72 -181 -175 -237
-230 -57 -54 -105 -106 -108 -115 -17 -55 118 -200 185 -200 6 0 149 134 318
297 343 332 337 323 288 407 -28 49 -106 106 -144 106 -16 0 -48 -22 -95 -67z"/>
<path d="M3413 1420 c-27 -12 -44 -27 -48 -42 -3 -13 -4 -212 -3 -442 l3 -419
28 -21 c41 -31 183 -31 224 0 l28 21 3 432 2 432 -25 23 c-44 41 -142 48 -212
16z"/>
</g>
</svg>
