<svg xmlns="http://www.w3.org/2000/svg" width="70px" height="55px" fill="#ffffff" viewBox="0 0 122.88 71.9"><path d="M29.56 0h88.02c1.57 0 2.95.64 3.9 1.67.96 1.03 1.5 2.46 1.38 4.03l-4.42 60.49a6.107 6.107 0 01-1.22 3.2c-.14.3-.33.57-.59.8-.17.15-.36.28-.56.37-1.05.83-2.36 1.33-3.74 1.33H24.31c-1.57 0-2.95-.64-3.91-1.67-.96-1.03-1.49-2.46-1.38-4.03l1.25-10.18h4.37l-1.08 7.78 33.11-30.93-29-25.14-.29 3.93H23l.43-5.95c.11-1.57.86-3 1.97-4.03C26.51.64 27.99 0 29.56 0zM2.19 49.78a2.19 2.19 0 110-4.38h28.89a2.19 2.19 0 110 4.38H2.19zm10.83-13.56a2.19 2.19 0 110-4.38h25.06a2.19 2.19 0 110 4.38H13.02zM2.19 22.66a2.19 2.19 0 110-4.38h28.89a2.19 2.19 0 110 4.38H2.19zm57.68 12.98L25.74 67.52h85.53L83.2 35.64l-10.64 8.54c-.83.67-2.01.71-2.8.03l-9.89-8.57zm26.87-2.83l27.5 31.23 4.13-56.6-31.63 25.37zM30.71 4.37l40.73 35.31 44.03-35.31H30.71z"/></svg>
