<svg height="512" width="512" xmlns="http://www.w3.org/2000/svg" fill="#ed664c"><path d="M454.433 68.925l8.348 23.473c.357 1.005 1.065 1.801 1.958 2.204l20.854 9.396c2.946 1.328 2.946 6.022 0 7.349l-20.854 9.396c-.893.402-1.6 1.199-1.958 2.204l-8.348 23.473c-1.179 3.316-5.35 3.316-6.529 0l-8.348-23.473c-.357-1.005-1.065-1.801-1.958-2.204l-20.854-9.396c-2.946-1.327-2.946-6.022 0-7.349l20.854-9.396c.893-.402 1.6-1.199 1.958-2.204l8.348-23.473c1.179-3.316 5.349-3.316 6.529 0zM142.415 1.845l6.192 17.412c.265.745.79 1.336 1.452 1.635l15.47 6.97c2.186.985 2.186 4.467 0 5.451l-15.47 6.97c-.662.298-1.187.889-1.452 1.635l-6.192 17.412c-.875 2.46-3.969 2.46-4.844 0l-6.192-17.412c-.265-.745-.79-1.336-1.452-1.635l-15.47-6.97c-2.185-.985-2.185-4.467 0-5.451l15.47-6.97c.662-.298 1.187-.889 1.452-1.635l6.192-17.412c.875-2.46 3.969-2.46 4.844 0zM395.26 38.202c0 6.774-5.491 12.265-12.265 12.265s-12.266-5.492-12.266-12.265c0-6.774 5.491-12.266 12.266-12.266 6.774 0 12.265 5.491 12.265 12.266zM60.433 106.525c0 10.006-8.112 18.118-18.118 18.118s-18.118-8.112-18.118-18.118 8.112-18.118 18.118-18.118c10.006.001 18.118 8.112 18.118 18.118z"/><g><path d="M247.513 512c-114.218 0-207.14-92.923-207.14-207.14s92.922-207.14 207.14-207.14 207.14 92.923 207.14 207.14C454.652 419.077 361.73 512 247.513 512zm0-394.168c-103.128 0-187.027 83.9-187.027 187.027s83.9 187.028 187.027 187.028 187.027-83.9 187.027-187.027-83.9-187.028-187.027-187.028z"/><path d="M200.923 258.489c-5.553 0-10.056-4.502-10.056-10.056 0-15.434-12.556-27.99-27.989-27.99-15.434 0-27.99 12.556-27.99 27.99 0 5.554-4.503 10.056-10.056 10.056s-10.056-4.502-10.056-10.056c0-26.524 21.579-48.102 48.103-48.102 26.523 0 48.102 21.579 48.102 48.102-.002 5.554-4.505 10.056-10.058 10.056zM370.195 258.489c-5.553 0-10.056-4.502-10.056-10.056 0-15.434-12.556-27.99-27.99-27.99-15.433 0-27.989 12.556-27.989 27.99 0 5.554-4.503 10.056-10.056 10.056s-10.056-4.502-10.056-10.056c0-26.524 21.579-48.102 48.102-48.102 26.524 0 48.103 21.579 48.103 48.102-.002 5.554-4.505 10.056-10.058 10.056zM381.347 298.535H113.679c-5.553 0-10.056 4.502-10.056 10.056 0 79.341 64.549 143.89 143.89 143.89s143.89-64.549 143.89-143.89c0-5.553-4.503-10.056-10.056-10.056zM171.12 405.907c13.725-21.999 43.33-36.345 76.393-36.345 33.062 0 62.667 14.346 76.393 36.345-21.054 16.564-47.588 26.462-76.393 26.462s-55.339-9.898-76.393-26.462zm167.698-13.842c-18.123-25.931-52.979-42.615-91.306-42.615-38.328 0-73.187 16.682-91.308 42.613-18.03-19.706-29.789-45.241-32.066-73.415h246.747c-2.276 28.175-14.035 53.711-32.067 73.417z"/></g></svg>
