<svg viewBox="0 0 60 60" xmlns="http://www.w3.org/2000/svg"><path d="M30 0c16.543 0 30 13.458 30 30S46.543 60 30 60C13.458 60 0 46.542 0 30S13.458 0 30 0zm0 1.935C14.525 1.935 1.935 14.525 1.935 30c0 15.475 12.59 28.065 28.065 28.065 15.474 0 28.065-12.59 28.065-28.065 0-15.475-12.59-28.065-28.065-28.065zM25.382 13.34c5.292 0 9.724 3.628 10.98 8.528.122-.007.243-.017.367-.017 4.7 0 8.51 3.81 8.51 8.51 0 4.536-3.552 8.233-8.026 8.485v3.571h7.522v1.936h-29.47v-1.936h9.625l-.059-6.411c-6.008-.288-10.796-5.238-10.796-11.319 0-6.266 5.081-11.347 11.347-11.347zm4.341 21.83c-1.215.504-2.539.792-3.924.843l.058 6.404h10.388V38.84a8.48 8.48 0 01-6.522-3.67zm7.006-11.384c-.016 0-.03.003-.046.004.024.297.046.594.046.897 0 4.032-2.11 7.564-5.278 9.576a6.562 6.562 0 004.794 2.643v-.672l-2.537-2.537.685-.684 1.852 1.853v-3.12h.968v4.088l.015.015-.015.017v1.045c3.4-.25 6.09-3.088 6.09-6.55a6.582 6.582 0 00-6.574-6.575zm-11.347-8.51c-5.19 0-9.411 4.221-9.411 9.411 0 4.998 3.918 9.086 8.843 9.382l-.009-1.016-3.677-3.677.684-.684 2.98 2.98-.018-2.037-3.646-3.647.684-.684 2.95 2.95-.021-2.335.967-.009.022 2.38 2.986-2.986.684.684-3.658 3.659.018 2.001 2.956-2.956.684.684-3.628 3.628.01 1.074c5.003-.212 9.011-4.336 9.011-9.39 0-5.19-4.22-9.412-9.41-9.412z" fill-rule="evenodd" fill="#ed664c" /></svg>
