<svg viewBox="0 0 60 60" xmlns="http://www.w3.org/2000/svg"><path d="M30 0c16.543 0 30 13.458 30 30S46.543 60 30 60 0 46.542 0 30 13.457 0 30 0zm14.38 38.867c-1.51 2.452-4.22 4.032-7.19 4.032-2.969 0-5.679-1.58-7.19-4.032-1.51 2.452-4.22 4.032-7.19 4.032-2.97 0-5.68-1.58-7.19-4.032-1.511 2.452-4.221 4.032-7.191 4.032a8.325 8.325 0 01-3.812-.927C9.12 51.475 18.805 58.065 30 58.065c11.195 0 20.88-6.59 25.381-16.094a8.317 8.317 0 01-3.81.928c-2.97 0-5.68-1.58-7.19-4.032zM30 1.935C14.526 1.935 1.935 14.525 1.935 30c0 2.888.439 5.675 1.253 8.299a6.527 6.527 0 005.24 2.665c2.896 0 5.47-1.95 6.261-4.743a.968.968 0 011.862 0 6.532 6.532 0 006.258 4.743c2.897 0 5.47-1.95 6.26-4.743a.968.968 0 011.862 0c.79 2.793 3.365 4.743 6.26 4.743 2.895 0 5.468-1.95 6.258-4.743a.967.967 0 011.861 0c.792 2.793 3.365 4.743 6.26 4.743a6.528 6.528 0 005.243-2.665A27.976 27.976 0 0058.065 30c0-15.475-12.59-28.065-28.065-28.065zm.135 7.984s7.984 5.323 7.984 13.307a7.983 7.983 0 01-7.984 7.984 7.984 7.984 0 01-7.984-7.984c0-7.73 7.485-12.966 7.96-13.29zm0 2.441c-1.992 1.665-6.048 5.69-6.048 10.866a6.056 6.056 0 006.048 6.048 6.056 6.056 0 006.048-6.048c0-5.177-4.055-9.201-6.048-10.866zm4.01 9.931c.07.385.103.776.103 1.16a3.36 3.36 0 01-3.356 3.357v-.968a2.392 2.392 0 002.389-2.389c0-.329-.03-.662-.088-.994l.953-.166z" fill-rule="evenodd" fill="#ed664c"/></svg>
