<svg viewBox="0 0 500 500" xmlns="http://www.w3.org/2000/svg">
  <defs></defs>
  <g transform="matrix(0.816193, 0, 0, 0.816193, 32.69318, 40.615463)" style="">
    <circle cx="253.821" cy="230.235" r="32.602" transform="matrix(8.849792, 0, 0, 8.905689, -1981.068726, -1792.957642)" fill="none" stroke="#000" style="stroke-width: 2.07012px;"></circle>
    <path d="M 333.662 95.582 L 316.225 83.564 L 309.277 103.569 C 301.295 126.551 280.905 148.131 253.334 162.778 C 249.359 164.89 245.414 166.944 241.506 168.979 C 217.592 181.43 195.004 193.192 174.291 212.961 C 156.222 230.207 143.909 251.884 139.621 273.998 C 135.067 297.485 139.337 321.381 151.962 343.685 C 137.352 365.457 130.181 392.211 130.181 424.622 L 162.434 424.622 C 162.434 398.755 167.893 380.571 175.183 367.417 C 199.568 384.381 226.344 393.111 254.05 393.111 C 259.699 393.111 265.39 392.748 271.104 392.019 C 312.207 386.77 350.306 362.492 375.631 325.41 C 396.144 295.371 404.645 251.293 398.369 207.5 C 391.466 159.328 368.485 119.582 333.662 95.582 Z M 348.996 307.222 C 328.866 336.698 298.987 355.944 267.02 360.026 C 242.427 363.166 218.222 357.173 196.139 342.639 C 196.148 342.631 196.157 342.623 196.166 342.616 C 206.504 334.091 221.641 325.613 236.282 317.414 C 257.591 305.479 279.624 293.138 292.772 277.761 L 268.259 256.801 C 258.846 267.808 239.363 278.721 220.52 289.274 C 204.64 298.168 188.218 307.367 175.648 317.732 C 175.522 317.836 175.402 317.944 175.276 318.047 C 158.709 277.303 186.591 245.809 196.561 236.293 C 213.96 219.686 234.575 208.952 256.401 197.588 C 260.388 195.513 264.412 193.417 268.466 191.263 C 285.267 182.338 312.93 164.177 330.274 134.61 C 349.288 153.706 361.925 180.552 366.444 212.078 C 371.529 247.56 364.844 284.017 348.996 307.222 Z" style=""></path>
  </g>
</svg>
