<svg viewBox="0 0 500 500" xmlns="http://www.w3.org/2000/svg">
  <defs></defs>
  <path d="M 363.784 173.41 L 240.708 113.994 C 239.618 113.468 238.347 113.468 237.258 113.994 L 114.18 173.41 C 112.809 174.073 111.938 175.462 111.938 176.986 L 111.938 321.28 C 111.938 322.803 112.809 324.194 114.18 324.856 L 237.256 384.273 C 238.347 384.797 239.618 384.797 240.708 384.273 L 363.784 324.856 C 365.156 324.192 366.027 322.803 366.027 321.28 L 366.027 176.986 C 366.027 175.462 365.156 174.073 363.784 173.41 Z M 238.983 121.981 L 352.924 176.986 L 319.895 192.931 C 319.686 192.767 319.459 192.625 319.222 192.508 L 206.055 137.877 L 238.983 121.981 Z M 197.087 142.366 L 310.863 197.293 L 287.56 208.542 L 173.832 153.637 L 197.087 142.366 Z M 313.526 204.825 L 313.526 246.409 L 291.76 256.917 L 291.76 215.333 L 313.526 204.825 Z M 358.086 318.788 L 242.953 374.371 L 242.953 238.895 L 270.417 225.637 C 273.187 224.345 273.524 220.54 271.021 218.785 C 269.826 217.947 268.268 217.832 266.963 218.485 L 238.983 231.994 L 227.973 226.679 C 225.22 225.349 222.061 227.498 222.285 230.546 C 222.39 231.961 223.242 233.214 224.52 233.831 L 235.012 238.895 L 235.012 374.371 L 119.877 318.79 L 119.877 183.31 L 207.552 225.635 C 210.331 226.909 213.447 224.696 213.161 221.653 C 213.032 220.296 212.218 219.098 211.004 218.483 L 125.04 176.985 L 164.486 157.941 L 283.763 215.524 L 283.817 215.594 L 283.817 263.241 C 283.819 266.167 286.879 268.087 289.516 266.817 L 319.222 252.475 C 320.594 251.813 321.467 250.424 321.467 248.901 L 321.467 200.989 L 358.086 183.31 L 358.086 318.787 Z" style="stroke-width: 9px;"></path>
  <path d="M 152.647 303.389 L 134.585 294.669 C 131.831 293.339 128.674 295.49 128.899 298.537 C 129.003 299.952 129.855 301.204 131.133 301.821 L 149.193 310.541 C 151.919 311.923 155.121 309.837 154.956 306.784 C 154.876 305.311 153.985 304.002 152.645 303.389 Z M 169.27 292.569 L 134.609 275.836 C 131.856 274.509 128.698 276.657 128.925 279.705 C 129.029 281.12 129.881 282.371 131.159 282.988 L 165.816 299.721 C 168.541 301.103 171.744 299.017 171.579 295.964 C 171.499 294.491 170.608 293.182 169.268 292.569 Z" style="stroke-width: 9px;"></path>
  <circle cx="253.821" cy="230.235" r="32.602" transform="matrix(7.223138, 0, 0, 7.268761, -1589.047119, -1427.842773)" fill="none" stroke="#000" style="stroke-width: 2.07012px;"></circle>
</svg>
