<svg height="512pt" viewBox="-4 0 512 512" width="512pt" xmlns="http://www.w3.org/2000/svg" fill="#ed664c"><path d="M353.04 313.79c101.862-73.11 94.276-226.794-13.407-290.036a7.039 7.039 0 00-1.059-.61C274.605-13.815 192.59-6.358 136.066 44.462a7.496 7.496 0 00-.566 10.59 7.5 7.5 0 0010.594.562c36.84-33.12 87.062-47.039 135.449-37.847-.691 8.172-6.383 17.02-12.602 22.933-12.214 11.617-62.796 1.594-81.168 41.762-2.566 5.602-6.105 15.55-9.285 20.535-1.613-5.625-2.93-14.46-10.02-20.457-4.253-3.598-8.804-5.187-13.527-4.73-8.492.832-14.382 8.21-17.906 12.617-7.441 9.32-4.129 17.687-1.715 23.8 2.239 5.653 4.168 10.532.575 18.66-3.446 7.802 3.71 16.317 6.062 19.114 9.64 11.469 33.832 30.484 48.574 26.832 35.98-8.945 46.168 49.695 70.121 55.805 17.938 4.574 35.192 14.949 33.016 24.398-6.703 29.094-34.309 26.25-51.617 33.922-9.531 4.227-26.793 16.223-38.38 30.898a158.113 158.113 0 01-26.284-11.07 237.95 237.95 0 013.758-8.305c12.535-26.312 11.707-40.011-17.946-64.488-14.21-11.73-9.304-27.594-2.683-38.832 4.218-7.16 2.132-16.453-4.75-21.152-10.696-7.317-42.016-26.067-56.63-47.645 5.384-20.246 14.528-38.879 27.247-55.449A7.503 7.503 0 00125 66.394a7.498 7.498 0 00-10.516 1.383c-41.91 54.606-49.468 133.145-9.347 197.282 52.867 84.511 165.156 106.656 246.207 49.925a6.905 6.905 0 001.695-1.195zm-2.177-17.161c-1.281-11.582 9.215-28.957 18.688-44.633 12.418-20.547 24.144-39.953 14.82-53.824-8.84-13.145-21.887-7.84-37.156-20.442-8.95-7.386-17.277-16.738-12.375-42.32 1.387-7.25 8.36-16.277 19.629-25.418 7.344-5.957 10.09-16.027 6.828-25.054-1.3-3.602-1.356-5.93-1.004-6.833 5.383-13.816-17.414-21.253-19.39-35.898 88.41 59.969 92.742 188.258 9.96 254.422zM95.258 151.579c17.101 18.929 40.582 32.972 52.047 40.816.394.265.515.761.289 1.152-13.352 22.668-11.145 43.816 6.058 58.016 28.457 23.488 21.703 28.539 10.746 53.476-48.734-32.348-77.816-91.348-69.14-153.46zm124.555 176.519c9.304-9.938 21.34-18.332 28.32-21.426 14.293-6.332 51.23-5.52 60.156-44.274 4.676-20.293-18.691-35.867-43.926-42.3-13.754-3.508-30.57-67.461-77.441-55.828-.945.222-5.582-.333-14.262-5.73-12.097-7.528-20.887-17.22-22.488-20.895 5.328-13.184 1.598-22.625-.899-28.938-2.293-5.8-2.34-6.633-.515-8.918 1.351-1.691 5.46-6.836 7.644-7.05.504-.06 1.395.417 2.38 1.253 6.187 5.235 3.03 23.106 16.69 25.703 14.61 2.774 20.423-18.922 25.942-30.996 14.95-32.683 59.691-19.844 77.867-37.133 9.442-8.98 15.403-19.886 16.934-30.293a158.573 158.573 0 0130.238 12.243c-4.586 21.843 14.363 34.386 19.3 40.851-1.202 4.438-.722 9.7 1.435 15.664 1.093 3.031.222 6.371-2.168 8.309-9.915 8.039-22.282 20.508-24.915 34.246-6.152 32.125 5.426 46.695 17.56 56.715 28.202 23.277 52.35-.176 19.046 54.933-12.492 20.672-26.441 43.766-18.902 61.782-33.793 21.828-75.797 30.863-117.997 22.082zm0 0M118.996 434.5a7.483 7.483 0 006.086 3.11c6 0 9.703-6.868 6.074-11.891-9.847-13.645-53.469-36.442-76.754-59.406-9.03-8.91-24.859-39.68-29.011-52.649l-10.246-36.887c-1.18-4.25 5.015-6.972 7.18-2.215 11.94 25.461 12.964 30.653 18.952 38.368 13.766 17.738 31.637 32.363 51.73 42.386l31.942 32.118a7.46 7.46 0 005.317 2.21c6.625 0 10.027-8.054 5.32-12.789l-32.234-32.414L90.645 324.7c-2.141-4.406 3.55-8.707 7.312-4.82 43.606 45.844 41.52 44.46 43.77 45.555l46.8 22.734c25.547 12.41 23.72 39.469 24.328 41.394.38 4.125 4.02 7.153 8.157 6.782a7.5 7.5 0 006.785-8.157l-.66-7.18c-1.828-19.862-14.114-37.62-32.055-46.335l-45.57-22.137-40.715-43.027c-6.465-6.684-16.754-8.031-24.469-3.203-6.96 4.355-10.25 12.468-8.773 20.148a135.799 135.799 0 01-22.43-22.723c-4.305-5.546-4.438-8.07-17.145-35.378-3.738-8.227-12.699-12.801-21.308-10.883-10.465 2.336-16.856 12.988-13.985 23.32 13.805 49.688 9.422 34.293 10.364 37.285 4.73 14.91 21.668 47.926 32.816 58.914 12.7 12.528 30.528 24.7 46.254 35.438 6.524 4.453 25.04 16.765 28.875 22.074zm0 0M491.227 258a18.723 18.723 0 00-23.063 10.012c-12.836 27.597-12.976 30.156-17.297 35.718a135.675 135.675 0 01-22.43 22.727c1.477-7.68-1.816-15.797-8.773-20.148-7.71-4.829-18.004-3.485-24.523 3.257l-40.66 42.97-45.567 22.136c-34 16.515-32.059 51.73-32.746 53.828a7.498 7.498 0 006.781 8.156c4.117.383 7.778-2.656 8.156-6.781.606-1.918-1.234-29.277 24.364-41.707 48.976-23.977 47.199-22.457 48.969-24.324l41.542-43.906c3.86-3.989 9.497.378 7.364 4.761l-12.703 19.742-32.235 32.414c-4.71 4.735-1.3 12.79 5.32 12.79 5.696 0 5.93-3.891 37.258-34.332 29.157-14.54 51.508-38.563 57.844-52.5l12.996-28.594c1.871-4.121 8.305-2.047 6.93 2.906l-10.152 36.535c-4.153 12.973-19.98 43.742-29.008 52.649-23.227 22.91-66.77 45.671-76.692 59.316-3.632 4.984.004 11.918 6.059 11.918a7.488 7.488 0 006.07-3.09c7.547-10.363 51.25-33.941 75.094-57.46 11.145-10.993 28.086-44.009 32.816-58.919.946-3-2.93 10.555 10.266-36.933 2.723-9.805-2.539-19.97-11.98-23.141zm0 0M225.496 451.727h-91.86c-9.59 0-17.39 7.8-17.39 17.39v25.496c0 9.586 7.8 17.387 17.39 17.387h91.86c9.586 0 17.387-7.8 17.387-17.387v-25.496c0-9.59-7.801-17.39-17.387-17.39zm2.387 42.886a2.389 2.389 0 01-2.387 2.387h-91.86a2.389 2.389 0 01-2.386-2.387v-25.496a2.389 2.389 0 012.387-2.387h91.86a2.389 2.389 0 012.386 2.387zm0 0M370.36 451.727h-91.864c-9.586 0-17.387 7.8-17.387 17.39v25.496c0 9.586 7.801 17.387 17.387 17.387h91.863c9.586 0 17.387-7.8 17.387-17.387v-25.496c0-9.59-7.8-17.39-17.387-17.39zm2.382 42.886A2.386 2.386 0 01370.36 497h-91.863a2.388 2.388 0 01-2.383-2.387v-25.496a2.388 2.388 0 012.383-2.387h91.863a2.386 2.386 0 012.383 2.387zm0 0"/></svg>
